<svg id="レイヤー_1" xmlns="http://www.w3.org/2000/svg" viewBox="0 0 44.1 38.9"><style>.st0{fill:#668E78;}</style><path class="st0" d="M33.5 38.8c.5.5 1.8-.1 2.3-.6l.8-.8c.5-.5 1.1-1.8.6-2.3L25.6 24.2l-3 3.2 10.9 11.4zM14.4 13.5c1.5-2.6.7-5.8-1.7-8.1C10 2.6 4-.1 1.2 2.7c-2.8 2.8-.1 8.8 2.7 11.6 2.3 2.3 5.4 3.1 8 1.7l5.5 5.7 2.9-2.7-5.9-5.5z"/><path class="st0" d="M28.6 13.4L5.7 35.1c-.5.5.1 1.8.6 2.3l.8.8c.3.3 1.2.8 1.8.8.2 0 .4-.1.5-.2l21.8-22.9c.6.3 1.2.5 1.9.5 1.9.2 3.9-.7 5.6-2.3 5.5-5.5 6.5-6.7 4.8-8.8L37 11.5c-.1.1-.3.2-.6.2-.2 0-.4-.1-.5-.2l-.2-.2c-.1-.1-.2-.3-.2-.5s.1-.4.2-.6l5.9-6.9-.4-.4-.7-.7-6.9 5.9c-.1.1-.3.2-.5.2s-.4-.1-.5-.2l-.2-.1c-.1-.1-.2-.3-.2-.5s.1-.4.2-.6L38.6.5c-2-1.4-3.2-.2-8.5 5-1.8 1.8-2.6 4-2.2 6.1.1.7.3 1.3.7 1.8z"/></svg>