<svg id="レイヤー_1" xmlns="http://www.w3.org/2000/svg" viewBox="0 0 45.6 41.4"><style>.st0{fill:#668E78;}</style><path class="st0" d="M43.6 33.3H2c-1.1 0-2 .9-2 2s.9 2 2 2h41.6c1.1 0 2-.9 2-2s-.9-2-2-2zM3.5 31.1h8.9c.2 0 .3-.1.5-.2.1-.1.2-.3.1-.5-.3-2.1-1.9-3.8-4-4.2v-.7c0-.5-.5-1-1-1s-1 .4-1 1v.7c-2.1.4-3.7 2.1-4 4.2 0 .2 0 .4.1.5 0 .1.2.2.4.2zM17 31.1h24.5c.2 0 .4-.2.5-.4.3-1.8 1.4-9.5-.1-11.8-1-1.5-3.5-2.5-6.3-3.2l-6.4 14.4S23.1 15.7 23 15.7c-2.8.7-5.4 1.7-6.4 3.2-1.5 2.2-.4 9.9-.1 11.8.1.2.3.4.5.4zM29.3 15c3.8 0 6.9-3.1 6.9-6.9s-3.1-6.9-6.9-6.9c-3.8 0-6.9 3.1-6.9 6.9 0 3.8 3.1 6.9 6.9 6.9zm-4.7-7.6c.1 0 .2 0 .4-.1 1.5-.2 4.3-1 5.3-3.4 0 0 1 2.2 3.4 2.2.2.5.4 1.2.4 1.9 0 2.6-2.1 4.8-4.8 4.8-2.6 0-4.8-2.1-4.8-4.8.1-.1.1-.4.1-.6z"/><path class="st0" d="M28.5 15.9c-.2 0-.4.2-.4.4v8.3c0 .1 0 .2.1.2L29 26c.1.1.2.2.3.2s.2-.1.3-.2l.8-1.2c0-.1.1-.2.1-.3v-8.2c0-.2-.1-.4-.3-.4h-1.7z"/></svg>