<svg id="レイヤー_1" xmlns="http://www.w3.org/2000/svg" viewBox="0 0 45.6 41.4"><style>.st0{fill:#668E78;}</style><path class="st0" d="M22.8 0C13.2 0 5.3 1.1 5.3 8.7v20.7c0 4.1 3.5 7.6 7.6 7.6l-3.3 3.3v1.1h26.2v-1.1L32.6 37c4.1 0 7.6-3.5 7.6-7.6V8.7c0-7.6-7.8-8.7-17.4-8.7zM13 32.7c-1.7 0-3.3-1.5-3.3-3.3 0-1.7 1.5-3.3 3.3-3.3s3.3 1.5 3.3 3.3c-.1 1.8-1.6 3.3-3.3 3.3zm7.6-13.1H9.7V8.7h10.9v10.9zm12 13.1c-1.7 0-3.3-1.5-3.3-3.3 0-1.7 1.5-3.3 3.3-3.3 1.7 0 3.3 1.5 3.3 3.3 0 1.8-1.6 3.3-3.3 3.3zm3.3-13.1H25V8.7h10.9v10.9z" id="directions-subway"/></svg>